<svg width="49" height="49" viewBox="0 0 49 49" fill="none" xmlns="http://www.w3.org/2000/svg">
<path d="M35.8996 5.39778C27.6978 5.15474 26.0768 12.4753 25.921 17.5827C25.4944 17.5017 25.0529 17.4575 24.5966 17.4575C23.788 17.4575 23.0201 17.5937 22.293 17.8405C21.7255 17.2955 21.4547 16.5774 21.3842 15.7047C21.1579 13.186 25.1531 11.4626 25.2644 7.78763C25.3942 3.95798 23.5172 0.993682 18.884 0.1762C14.6737 -0.563954 5.80416 0.548115 5.43692 13.0055C5.1958 21.1472 12.5703 22.7638 17.7191 22.9074C17.6041 23.4082 17.5337 23.9274 17.5337 24.465C17.5337 25.3083 17.6894 26.111 17.9751 26.8622C17.4186 27.4256 16.6953 27.6908 15.8125 27.7718C13.2826 28.0001 11.5465 24.0268 7.83698 23.909C3.98648 23.7875 1.00025 25.6581 0.17673 30.2574C-0.565177 34.4258 0.544003 43.2303 13.0971 43.6022C21.3582 43.8453 22.9496 36.4179 23.0757 31.3068C23.5728 31.4099 24.0699 31.4725 24.5966 31.4725C25.3237 31.4725 26.0322 31.3621 26.6999 31.1559C27.2712 31.7009 27.542 32.4226 27.6124 33.2953C27.8536 35.814 23.8436 37.5411 23.7286 41.2124C23.6024 45.042 25.4943 48.0063 30.1127 48.8238C34.3193 49.564 43.1925 48.4519 43.5597 35.9945C43.8008 27.9412 36.5933 26.2694 31.4481 26.0963C31.578 25.5734 31.6485 25.0284 31.6485 24.465C31.6485 23.5886 31.4927 22.7564 31.1922 21.9831C31.7189 21.5265 32.3866 21.3019 33.1842 21.2282C35.7141 20.9999 37.4464 24.9732 41.1597 25.091C45.0102 25.2125 47.9964 23.3419 48.8199 18.7463C49.573 14.5742 48.4489 5.76969 35.8996 5.39778ZM24.4965 26.3541C23.4763 26.3541 22.6343 25.5255 22.6343 24.4982C22.6343 23.4782 23.4763 22.6423 24.4965 22.6423C25.5351 22.6423 26.3735 23.4782 26.3735 24.4982C26.3735 25.5255 25.5351 26.3541 24.4965 26.3541Z" fill="#F5F5F5"/>
</svg>
