<svg width="117" height="52" viewBox="0 0 117 52" fill="none" xmlns="http://www.w3.org/2000/svg">
<path d="M106.004 17.751H97.5009L82.3208 0H48.5545L30.4891 17.751H10.9902C4.92159 17.751 0 22.8618 0 29.1731V31.3469C0 37.6582 4.92159 42.769 10.9902 42.769H15.11C16.4677 48.0722 21.2781 52 27.0189 52C32.7715 52 37.5819 48.0722 38.9337 42.769H79.8922C81.244 48.0722 86.0602 52 91.8011 52C97.5536 52 102.358 48.0722 103.716 42.769H106.004C112.073 42.769 117 37.6582 117 31.3469V29.1731C117 22.8618 112.073 17.751 106.004 17.751ZM75.5148 35.129V32.8038H50.4505C49.9941 32.8038 47.2319 32.7047 44.9496 30.4669C43.0418 28.602 42.0821 25.8922 42.0821 22.4073C42.0821 18.8699 43.0828 16.0784 45.0666 14.1145C47.7 11.5038 50.9713 11.4222 51.3693 11.4455L81.2323 11.4338V16.3582L51.3576 16.3757C50.3569 16.399 47.027 16.906 47.027 22.4073C47.027 27.4074 49.6839 27.8619 50.4915 27.8794H75.5148V25.8572L88.7463 30.4902L75.5148 35.129Z" fill="black"/>
</svg>
